<?xml version="1.0" standalone="no"?><svg xmlns="http://www.w3.org/2000/svg" viewBox="0 0 1440 320"><path fill="#b20000" fill-opacity="1" d="M0,96L16,112C32,128,64,160,96,154.7C128,149,160,107,192,122.7C224,139,256,213,288,208C320,203,352,117,384,106.7C416,96,448,160,480,165.3C512,171,544,117,576,122.7C608,128,640,192,672,208C704,224,736,192,768,181.3C800,171,832,181,864,170.7C896,160,928,128,960,138.7C992,149,1024,203,1056,192C1088,181,1120,107,1152,74.7C1184,43,1216,53,1248,80C1280,107,1312,149,1344,165.3C1376,181,1408,171,1424,165.3L1440,160L1440,320L1424,320C1408,320,1376,320,1344,320C1312,320,1280,320,1248,320C1216,320,1184,320,1152,320C1120,320,1088,320,1056,320C1024,320,992,320,960,320C928,320,896,320,864,320C832,320,800,320,768,320C736,320,704,320,672,320C640,320,608,320,576,320C544,320,512,320,480,320C448,320,416,320,384,320C352,320,320,320,288,320C256,320,224,320,192,320C160,320,128,320,96,320C64,320,32,320,16,320L0,320Z"></path></svg>